<?xml version="1.0" encoding="utf-8"?>
<!-- Svg Vector Icons : http://www.onlinewebfonts.com/icon -->
<!DOCTYPE svg PUBLIC "-//W3C//DTD SVG 1.1//EN" "http://www.w3.org/Graphics/SVG/1.1/DTD/svg11.dtd">
<svg version="1.1" xmlns="http://www.w3.org/2000/svg" xmlns:xlink="http://www.w3.org/1999/xlink" x="0px" y="0px" viewBox="0 0 1000 1000" enable-background="new 0 0 1000 1000" xml:space="preserve">
<metadata> Svg Vector Icons : http://www.onlinewebfonts.com/icon </metadata>
<g><path d="M487.2,818.8L140.7,460.9l88.8-72.3l200.3,159.5C512,449,694.3,252.3,945.7,95.9l21.2,49.6C736.1,360.8,547.1,663.9,487.2,818.8L487.2,818.8L487.2,818.8z M930,399.2c7.5,32.4,11.6,66.1,11.6,100.8c0,243.9-197.7,441.5-441.5,441.5C256.1,941.5,58.5,743.9,58.5,500C58.5,256.1,256.1,58.5,500,58.5c59.4,0,116,11.8,167.7,33v-52C614.1,19.9,557.8,10,500,10c-66.1,0-130.3,13-190.7,38.5c-58.3,24.7-110.7,60-155.8,105c-45,45-80.3,97.4-105,155.8C23,369.7,10,433.9,10,500s13,130.3,38.5,190.7c24.7,58.3,60,110.8,105,155.8c45,45,97.4,80.3,155.8,105C369.7,977,433.9,990,500,990s130.3-13,190.7-38.5c58.3-24.7,110.7-60,155.8-105c45-45,80.3-97.4,105-155.8C977,630.3,990,566.1,990,500c0-34.2-3.5-67.9-10.4-100.8H930L930,399.2z M930,399.2c7.5,32.4,11.6,66.1,11.6,100.8c0,243.9-197.7,441.5-441.5,441.5C256.1,941.5,58.5,743.9,58.5,500C58.5,256.1,256.1,58.5,500,58.5c59.4,0,116,11.8,167.7,33v-52C614.1,19.9,557.8,10,500,10c-66.1,0-130.3,13-190.7,38.5c-58.3,24.7-110.7,60-155.8,105c-45,45-80.3,97.4-105,155.8C23,369.7,10,433.9,10,500s13,130.3,38.5,190.7c24.7,58.3,60,110.8,105,155.8c45,45,97.4,80.3,155.8,105C369.7,977,433.9,990,500,990s130.3-13,190.7-38.5c58.3-24.7,110.7-60,155.8-105c45-45,80.3-97.4,105-155.8C977,630.3,990,566.1,990,500c0-34.2-3.5-67.9-10.4-100.8H930L930,399.2z M930,399.2c7.5,32.4,11.6,66.1,11.6,100.8c0,243.9-197.7,441.5-441.5,441.5C256.1,941.5,58.5,743.9,58.5,500C58.5,256.1,256.1,58.5,500,58.5c59.4,0,116,11.8,167.7,33v-52C614.1,19.9,557.8,10,500,10c-66.1,0-130.3,13-190.7,38.5c-58.3,24.7-110.7,60-155.8,105c-45,45-80.3,97.4-105,155.8C23,369.7,10,433.9,10,500s13,130.3,38.5,190.7c24.7,58.3,60,110.8,105,155.8c45,45,97.4,80.3,155.8,105C369.7,977,433.9,990,500,990s130.3-13,190.7-38.5c58.3-24.7,110.7-60,155.8-105c45-45,80.3-97.4,105-155.8C977,630.3,990,566.1,990,500c0-34.2-3.5-67.9-10.4-100.8H930L930,399.2z"/></g>
</svg>